<svg id='squiggle-link' xmlns='http://www.w3.org/2000/svg' xmlns:xlink='http://www.w3.org/1999/xlink' xmlns:ev='http://www.w3.org/2001/xml-events' viewBox="11 42.5 39 15">
    <style type='text/css'>
        .squiggle {
            animation:shift 1500ms linear infinite;
        }
        @keyframes shift {
            0%   {transform:translateX(0);stroke:magenta;}
            50%  {transform:translateX(-50%);stroke:cyan;}
            100%  {transform:translateX(-100%);stroke:magenta;}
        }
    </style>
    <path fill='none' stroke-width='1' class='squiggle' d="M89,54c-1.6855469,0-2.6679688-1.7568359-3.9755859-4.4384766C83.7539062,46.9550781,82.3144531,44,79.2519531,44  c-3.0615234,0-4.5019531,2.9550781-5.7724609,5.5615234C72.1738281,52.2431641,71.1914062,54,69.5058594,54  s-2.6679688-1.7568359-3.9736328-4.4384766C64.2617188,46.9550781,62.8212891,44,59.7597656,44  c-3.0625,0-4.5019531,2.9550781-5.7724609,5.5615234C52.6796875,52.2431641,51.6972656,54,50.0117188,54  c-1.6865234,0-2.6699219-1.7568359-3.9775391-4.4384766C44.7636719,46.9550781,43.3222656,44,40.2597656,44  c-3.0615234,0-4.5019531,2.9550781-5.7724609,5.5615234C33.1796875,52.2421875,32.1972656,54,30.5107422,54  c-1.6875,0-2.671875-1.7578125-3.9794922-4.4384766C25.2597656,46.9541016,23.8193359,44,20.7558594,44  s-4.5048828,2.9550781-5.7763672,5.5615234C13.6708984,52.2421875,12.6875,54,11,54c-0.5527344,0-1,0.4472656-1,1s0.4472656,1,1,1  c3.0634766,0,4.5048828-2.9550781,5.7763672-5.5615234C18.0849609,47.7578125,19.0683594,46,20.7558594,46  s2.6708984,1.7568359,3.9785156,4.4384766C26.0058594,53.0449219,27.4472656,56,30.5107422,56  c3.0625,0,4.5029297-2.9550781,5.7744141-5.5625C37.5917969,47.7568359,38.5742188,46,40.2597656,46  c1.6865234,0,2.6699219,1.7568359,3.9775391,4.4384766C45.5078125,53.0449219,46.9492188,56,50.0117188,56  s4.5019531-2.9550781,5.7724609-5.5615234C57.0917969,47.7568359,58.0742188,46,59.7597656,46  s2.6679688,1.7568359,3.9736328,4.4384766C65.0039062,53.0449219,66.4443359,56,69.5058594,56  s4.5019531-2.9550781,5.7724609-5.5615234C76.5839844,47.7568359,77.5664062,46,79.2519531,46  s2.6679688,1.7568359,3.9755859,4.4384766C84.4980469,53.0449219,85.9375,56,89,56c0.5527344,0,1-0.4472656,1-1S89.5527344,54,89,54  z"></path>
</svg>